<svg width="1440" height="560" viewBox="0 0 1440 560" fill="none" xmlns="http://www.w3.org/2000/svg">
<g clip-path="url(#clip0_692_738)">
<mask id="mask0_692_738" style="mask-type:luminance" maskUnits="userSpaceOnUse" x="0" y="0" width="1440" height="560">
<path d="M1440 0H0V560H1440V0Z" fill="white"/>
</mask>
<g mask="url(#mask0_692_738)">
<path d="M1440 0H0V560H1440V0Z" fill="#1A2B34"/>
<path d="M343.89 193.08L280.67 156.58L217.44 193.08V266.08L280.67 302.58L343.89 266.08M343.89 193.08V266.08M343.89 193.08L407.11 156.58L470.33 193.08V266.08L407.11 302.58L343.89 266.08M912.88 521.58L849.66 485.08L786.44 521.58V594.58L849.66 631.08L912.88 594.58M912.88 521.58V594.58M912.88 521.58L976.1 485.08L1039.33 521.58V594.58L976.1 631.08L912.88 594.58M1355.43 266.08V193.08L1292.21 156.58L1228.99 193.08V266.08L1292.21 302.58M1355.43 266.08L1292.21 302.58M1355.43 266.08L1418.66 302.58V375.58L1355.43 412.08L1292.21 375.58V302.58M91 47.08L154.22 83.58V156.58L91 193.08L27.78 156.58V83.58L91 47.08ZM27.78 375.58L91 412.08V485.08L27.78 521.58L-35.44 485.08V412.08L27.78 375.58ZM280.67 375.58L343.89 412.08V485.08L280.67 521.58L217.44 485.08V412.08L280.67 375.58ZM1251 -35.42L1314.22 1.08002V74.08L1251 110.58L1187.77 74.08V1.08002L1251 -35.42Z" stroke="#3E82F7" stroke-opacity="0.2" stroke-width="2"/>
<path d="M80.7 47.08C80.7 48.0387 80.8888 48.9879 81.2557 49.8736C81.6226 50.7593 82.1603 51.564 82.8381 52.2419C83.516 52.9198 84.3207 53.4575 85.2064 53.8244C86.0921 54.1912 87.0414 54.38 88 54.38C88.9587 54.38 89.9079 54.1912 90.7936 53.8244C91.6793 53.4575 92.484 52.9198 93.1619 52.2419C93.8398 51.564 94.3775 50.7593 94.7443 49.8736C95.1112 48.9879 95.3 48.0387 95.3 47.08C95.3 46.1214 95.1112 45.1721 94.7443 44.2864C94.3775 43.4008 93.8398 42.596 93.1619 41.9182C92.484 41.2403 91.6793 40.7026 90.7936 40.3357C89.9079 39.9688 88.9587 39.78 88 39.78C87.0414 39.78 86.0921 39.9688 85.2064 40.3357C84.3207 40.7026 83.516 41.2403 82.8381 41.9182C82.1603 42.596 81.6226 43.4008 81.2557 44.2864C80.8888 45.1721 80.7 46.1214 80.7 47.08ZM143.92 83.58C143.92 85.5161 144.689 87.3729 146.058 88.7419C147.427 90.1109 149.284 90.88 151.22 90.88C153.156 90.88 155.013 90.1109 156.382 88.7419C157.751 87.3729 158.52 85.5161 158.52 83.58C158.52 81.644 157.751 79.7872 156.382 78.4182C155.013 77.0491 153.156 76.28 151.22 76.28C149.284 76.28 147.427 77.0491 146.058 78.4182C144.689 79.7872 143.92 81.644 143.92 83.58ZM143.92 156.58C143.92 158.516 144.689 160.373 146.058 161.742C147.427 163.111 149.284 163.88 151.22 163.88C153.156 163.88 155.013 163.111 156.382 161.742C157.751 160.373 158.52 158.516 158.52 156.58C158.52 154.644 157.751 152.787 156.382 151.418C155.013 150.049 153.156 149.28 151.22 149.28C149.284 149.28 147.427 150.049 146.058 151.418C144.689 152.787 143.92 154.644 143.92 156.58ZM80.7 193.08C80.7 194.039 80.8888 194.988 81.2557 195.874C81.6226 196.759 82.1603 197.564 82.8381 198.242C83.516 198.92 84.3207 199.457 85.2064 199.824C86.0921 200.191 87.0414 200.38 88 200.38C88.9587 200.38 89.9079 200.191 90.7936 199.824C91.6793 199.457 92.484 198.92 93.1619 198.242C93.8398 197.564 94.3775 196.759 94.7443 195.874C95.1112 194.988 95.3 194.039 95.3 193.08C95.3 192.121 95.1112 191.172 94.7443 190.286C94.3775 189.401 93.8398 188.596 93.1619 187.918C92.484 187.24 91.6793 186.703 90.7936 186.336C89.9079 185.969 88.9587 185.78 88 185.78C87.0414 185.78 86.0921 185.969 85.2064 186.336C84.3207 186.703 83.516 187.24 82.8381 187.918C82.1603 188.596 81.6226 189.401 81.2557 190.286C80.8888 191.172 80.7 192.121 80.7 193.08ZM17.48 156.58C17.48 157.539 17.6688 158.488 18.0357 159.374C18.4025 160.259 18.9403 161.064 19.6181 161.742C20.296 162.42 21.1007 162.957 21.9864 163.324C22.8721 163.691 23.8214 163.88 24.78 163.88C25.7387 163.88 26.6879 163.691 27.5736 163.324C28.4593 162.957 29.264 162.42 29.9419 161.742C30.6198 161.064 31.1575 160.259 31.5243 159.374C31.8912 158.488 32.08 157.539 32.08 156.58C32.08 155.621 31.8912 154.672 31.5243 153.786C31.1575 152.901 30.6198 152.096 29.9419 151.418C29.264 150.74 28.4593 150.203 27.5736 149.836C26.6879 149.469 25.7387 149.28 24.78 149.28C23.8214 149.28 22.8721 149.469 21.9864 149.836C21.1007 150.203 20.296 150.74 19.6181 151.418C18.9403 152.096 18.4025 152.901 18.0357 153.786C17.6688 154.672 17.48 155.621 17.48 156.58ZM17.48 83.58C17.48 84.5387 17.6688 85.4879 18.0357 86.3736C18.4025 87.2593 18.9403 88.064 19.6181 88.7419C20.296 89.4198 21.1007 89.9575 21.9864 90.3243C22.8721 90.6912 23.8214 90.88 24.78 90.88C25.7387 90.88 26.6879 90.6912 27.5736 90.3243C28.4593 89.9575 29.264 89.4198 29.9419 88.7419C30.6198 88.064 31.1575 87.2593 31.5243 86.3736C31.8912 85.4879 32.08 84.5387 32.08 83.58C32.08 82.6214 31.8912 81.6721 31.5243 80.7864C31.1575 79.9008 30.6198 79.096 29.9419 78.4182C29.264 77.7403 28.4593 77.2026 27.5736 76.8357C26.6879 76.4688 25.7387 76.28 24.78 76.28C23.8214 76.28 22.8721 76.4688 21.9864 76.8357C21.1007 77.2026 20.296 77.7403 19.6181 78.4182C18.9403 79.096 18.4025 79.9008 18.0357 80.7864C17.6688 81.6721 17.48 82.6214 17.48 83.58ZM17.48 375.58C17.48 376.539 17.6688 377.488 18.0357 378.374C18.4025 379.259 18.9403 380.064 19.6181 380.742C20.296 381.42 21.1007 381.957 21.9864 382.324C22.8721 382.691 23.8214 382.88 24.78 382.88C25.7387 382.88 26.6879 382.691 27.5736 382.324C28.4593 381.957 29.264 381.42 29.9419 380.742C30.6198 380.064 31.1575 379.259 31.5243 378.374C31.8912 377.488 32.08 376.539 32.08 375.58C32.08 374.621 31.8912 373.672 31.5243 372.786C31.1575 371.901 30.6198 371.096 29.9419 370.418C29.264 369.74 28.4593 369.203 27.5736 368.836C26.6879 368.469 25.7387 368.28 24.78 368.28C23.8214 368.28 22.8721 368.469 21.9864 368.836C21.1007 369.203 20.296 369.74 19.6181 370.418C18.9403 371.096 18.4025 371.901 18.0357 372.786C17.6688 373.672 17.48 374.621 17.48 375.58ZM80.7 412.08C80.7 413.039 80.8888 413.988 81.2557 414.874C81.6226 415.759 82.1603 416.564 82.8381 417.242C83.516 417.92 84.3207 418.457 85.2064 418.824C86.0921 419.191 87.0414 419.38 88 419.38C88.9587 419.38 89.9079 419.191 90.7936 418.824C91.6793 418.457 92.484 417.92 93.1619 417.242C93.8398 416.564 94.3775 415.759 94.7443 414.874C95.1112 413.988 95.3 413.039 95.3 412.08C95.3 411.121 95.1112 410.172 94.7443 409.286C94.3775 408.401 93.8398 407.596 93.1619 406.918C92.484 406.24 91.6793 405.703 90.7936 405.336C89.9079 404.969 88.9587 404.78 88 404.78C87.0414 404.78 86.0921 404.969 85.2064 405.336C84.3207 405.703 83.516 406.24 82.8381 406.918C82.1603 407.596 81.6226 408.401 81.2557 409.286C80.8888 410.172 80.7 411.121 80.7 412.08ZM80.7 485.08C80.7 486.039 80.8888 486.988 81.2557 487.874C81.6226 488.759 82.1603 489.564 82.8381 490.242C83.516 490.92 84.3207 491.457 85.2064 491.824C86.0921 492.191 87.0414 492.38 88 492.38C88.9587 492.38 89.9079 492.191 90.7936 491.824C91.6793 491.457 92.484 490.92 93.1619 490.242C93.8398 489.564 94.3775 488.759 94.7443 487.874C95.1112 486.988 95.3 486.039 95.3 485.08C95.3 484.121 95.1112 483.172 94.7443 482.286C94.3775 481.401 93.8398 480.596 93.1619 479.918C92.484 479.24 91.6793 478.703 90.7936 478.336C89.9079 477.969 88.9587 477.78 88 477.78C87.0414 477.78 86.0921 477.969 85.2064 478.336C84.3207 478.703 83.516 479.24 82.8381 479.918C82.1603 480.596 81.6226 481.401 81.2557 482.286C80.8888 483.172 80.7 484.121 80.7 485.08ZM17.48 521.58C17.48 522.539 17.6688 523.488 18.0357 524.374C18.4025 525.259 18.9403 526.064 19.6181 526.742C20.296 527.42 21.1007 527.957 21.9864 528.324C22.8721 528.691 23.8214 528.88 24.78 528.88C25.7387 528.88 26.6879 528.691 27.5736 528.324C28.4593 527.957 29.264 527.42 29.9419 526.742C30.6198 526.064 31.1575 525.259 31.5243 524.374C31.8912 523.488 32.08 522.539 32.08 521.58C32.08 520.621 31.8912 519.672 31.5243 518.786C31.1575 517.901 30.6198 517.096 29.9419 516.418C29.264 515.74 28.4593 515.203 27.5736 514.836C26.6879 514.469 25.7387 514.28 24.78 514.28C23.8214 514.28 22.8721 514.469 21.9864 514.836C21.1007 515.203 20.296 515.74 19.6181 516.418C18.9403 517.096 18.4025 517.901 18.0357 518.786C17.6688 519.672 17.48 520.621 17.48 521.58ZM-45.74 485.08C-45.74 487.016 -44.9709 488.873 -43.6019 490.242C-42.2329 491.611 -40.3761 492.38 -38.44 492.38C-36.5039 492.38 -34.6471 491.611 -33.2781 490.242C-31.9091 488.873 -31.14 487.016 -31.14 485.08C-31.14 483.144 -31.9091 481.287 -33.2781 479.918C-34.6471 478.549 -36.5039 477.78 -38.44 477.78C-40.3761 477.78 -42.2329 478.549 -43.6019 479.918C-44.9709 481.287 -45.74 483.144 -45.74 485.08ZM-45.74 412.08C-45.74 414.016 -44.9709 415.873 -43.6019 417.242C-42.2329 418.611 -40.3761 419.38 -38.44 419.38C-36.5039 419.38 -34.6471 418.611 -33.2781 417.242C-31.9091 415.873 -31.14 414.016 -31.14 412.08C-31.14 410.144 -31.9091 408.287 -33.2781 406.918C-34.6471 405.549 -36.5039 404.78 -38.44 404.78C-40.3761 404.78 -42.2329 405.549 -43.6019 406.918C-44.9709 408.287 -45.74 410.144 -45.74 412.08ZM270.37 156.58C270.37 158.516 271.139 160.373 272.508 161.742C273.877 163.111 275.734 163.88 277.67 163.88C279.606 163.88 281.463 163.111 282.832 161.742C284.201 160.373 284.97 158.516 284.97 156.58C284.97 154.644 284.201 152.787 282.832 151.418C281.463 150.049 279.606 149.28 277.67 149.28C275.734 149.28 273.877 150.049 272.508 151.418C271.139 152.787 270.37 154.644 270.37 156.58ZM333.59 193.08C333.59 195.016 334.359 196.873 335.728 198.242C337.097 199.611 338.954 200.38 340.89 200.38C342.826 200.38 344.683 199.611 346.052 198.242C347.421 196.873 348.19 195.016 348.19 193.08C348.19 191.144 347.421 189.287 346.052 187.918C344.683 186.549 342.826 185.78 340.89 185.78C338.954 185.78 337.097 186.549 335.728 187.918C334.359 189.287 333.59 191.144 333.59 193.08ZM333.59 266.08C333.59 268.016 334.359 269.873 335.728 271.242C337.097 272.611 338.954 273.38 340.89 273.38C342.826 273.38 344.683 272.611 346.052 271.242C347.421 269.873 348.19 268.016 348.19 266.08C348.19 264.144 347.421 262.287 346.052 260.918C344.683 259.549 342.826 258.78 340.89 258.78C338.954 258.78 337.097 259.549 335.728 260.918C334.359 262.287 333.59 264.144 333.59 266.08ZM270.37 302.58C270.37 304.516 271.139 306.373 272.508 307.742C273.877 309.111 275.734 309.88 277.67 309.88C279.606 309.88 281.463 309.111 282.832 307.742C284.201 306.373 284.97 304.516 284.97 302.58C284.97 300.644 284.201 298.787 282.832 297.418C281.463 296.049 279.606 295.28 277.67 295.28C275.734 295.28 273.877 296.049 272.508 297.418C271.139 298.787 270.37 300.644 270.37 302.58ZM207.14 266.08C207.14 268.016 207.909 269.873 209.278 271.242C210.647 272.611 212.504 273.38 214.44 273.38C216.376 273.38 218.233 272.611 219.602 271.242C220.971 269.873 221.74 268.016 221.74 266.08C221.74 264.144 220.971 262.287 219.602 260.918C218.233 259.549 216.376 258.78 214.44 258.78C212.504 258.78 210.647 259.549 209.278 260.918C207.909 262.287 207.14 264.144 207.14 266.08ZM207.14 193.08C207.14 195.016 207.909 196.873 209.278 198.242C210.647 199.611 212.504 200.38 214.44 200.38C216.376 200.38 218.233 199.611 219.602 198.242C220.971 196.873 221.74 195.016 221.74 193.08C221.74 191.144 220.971 189.287 219.602 187.918C218.233 186.549 216.376 185.78 214.44 185.78C212.504 185.78 210.647 186.549 209.278 187.918C207.909 189.287 207.14 191.144 207.14 193.08ZM270.37 375.58C270.37 377.516 271.139 379.373 272.508 380.742C273.877 382.111 275.734 382.88 277.67 382.88C279.606 382.88 281.463 382.111 282.832 380.742C284.201 379.373 284.97 377.516 284.97 375.58C284.97 373.644 284.201 371.787 282.832 370.418C281.463 369.049 279.606 368.28 277.67 368.28C275.734 368.28 273.877 369.049 272.508 370.418C271.139 371.787 270.37 373.644 270.37 375.58ZM333.59 412.08C333.59 414.016 334.359 415.873 335.728 417.242C337.097 418.611 338.954 419.38 340.89 419.38C342.826 419.38 344.683 418.611 346.052 417.242C347.421 415.873 348.19 414.016 348.19 412.08C348.19 410.144 347.421 408.287 346.052 406.918C344.683 405.549 342.826 404.78 340.89 404.78C338.954 404.78 337.097 405.549 335.728 406.918C334.359 408.287 333.59 410.144 333.59 412.08ZM333.59 485.08C333.59 487.016 334.359 488.873 335.728 490.242C337.097 491.611 338.954 492.38 340.89 492.38C342.826 492.38 344.683 491.611 346.052 490.242C347.421 488.873 348.19 487.016 348.19 485.08C348.19 483.144 347.421 481.287 346.052 479.918C344.683 478.549 342.826 477.78 340.89 477.78C338.954 477.78 337.097 478.549 335.728 479.918C334.359 481.287 333.59 483.144 333.59 485.08ZM270.37 521.58C270.37 523.516 271.139 525.373 272.508 526.742C273.877 528.111 275.734 528.88 277.67 528.88C279.606 528.88 281.463 528.111 282.832 526.742C284.201 525.373 284.97 523.516 284.97 521.58C284.97 519.644 284.201 517.787 282.832 516.418C281.463 515.049 279.606 514.28 277.67 514.28C275.734 514.28 273.877 515.049 272.508 516.418C271.139 517.787 270.37 519.644 270.37 521.58ZM207.14 485.08C207.14 487.016 207.909 488.873 209.278 490.242C210.647 491.611 212.504 492.38 214.44 492.38C216.376 492.38 218.233 491.611 219.602 490.242C220.971 488.873 221.74 487.016 221.74 485.08C221.74 483.144 220.971 481.287 219.602 479.918C218.233 478.549 216.376 477.78 214.44 477.78C212.504 477.78 210.647 478.549 209.278 479.918C207.909 481.287 207.14 483.144 207.14 485.08ZM207.14 412.08C207.14 414.016 207.909 415.873 209.278 417.242C210.647 418.611 212.504 419.38 214.44 419.38C216.376 419.38 218.233 418.611 219.602 417.242C220.971 415.873 221.74 414.016 221.74 412.08C221.74 410.144 220.971 408.287 219.602 406.918C218.233 405.549 216.376 404.78 214.44 404.78C212.504 404.78 210.647 405.549 209.278 406.918C207.909 408.287 207.14 410.144 207.14 412.08ZM396.81 156.58C396.81 158.516 397.579 160.373 398.948 161.742C400.317 163.111 402.174 163.88 404.11 163.88C406.046 163.88 407.903 163.111 409.272 161.742C410.641 160.373 411.41 158.516 411.41 156.58C411.41 154.644 410.641 152.787 409.272 151.418C407.903 150.049 406.046 149.28 404.11 149.28C402.174 149.28 400.317 150.049 398.948 151.418C397.579 152.787 396.81 154.644 396.81 156.58ZM460.03 193.08C460.03 194.039 460.219 194.988 460.586 195.874C460.953 196.759 461.49 197.564 462.168 198.242C462.846 198.92 463.651 199.457 464.536 199.824C465.422 200.191 466.371 200.38 467.33 200.38C468.289 200.38 469.238 200.191 470.124 199.824C471.009 199.457 471.814 198.92 472.492 198.242C473.17 197.564 473.707 196.759 474.074 195.874C474.441 194.988 474.63 194.039 474.63 193.08C474.63 192.121 474.441 191.172 474.074 190.286C473.707 189.401 473.17 188.596 472.492 187.918C471.814 187.24 471.009 186.703 470.124 186.336C469.238 185.969 468.289 185.78 467.33 185.78C466.371 185.78 465.422 185.969 464.536 186.336C463.651 186.703 462.846 187.24 462.168 187.918C461.49 188.596 460.953 189.401 460.586 190.286C460.219 191.172 460.03 192.121 460.03 193.08ZM460.03 266.08C460.03 267.039 460.219 267.988 460.586 268.874C460.953 269.759 461.49 270.564 462.168 271.242C462.846 271.92 463.651 272.457 464.536 272.824C465.422 273.191 466.371 273.38 467.33 273.38C468.289 273.38 469.238 273.191 470.124 272.824C471.009 272.457 471.814 271.92 472.492 271.242C473.17 270.564 473.707 269.759 474.074 268.874C474.441 267.988 474.63 267.039 474.63 266.08C474.63 265.121 474.441 264.172 474.074 263.286C473.707 262.401 473.17 261.596 472.492 260.918C471.814 260.24 471.009 259.703 470.124 259.336C469.238 258.969 468.289 258.78 467.33 258.78C466.371 258.78 465.422 258.969 464.536 259.336C463.651 259.703 462.846 260.24 462.168 260.918C461.49 261.596 460.953 262.401 460.586 263.286C460.219 264.172 460.03 265.121 460.03 266.08ZM396.81 302.58C396.81 304.516 397.579 306.373 398.948 307.742C400.317 309.111 402.174 309.88 404.11 309.88C406.046 309.88 407.903 309.111 409.272 307.742C410.641 306.373 411.41 304.516 411.41 302.58C411.41 300.644 410.641 298.787 409.272 297.418C407.903 296.049 406.046 295.28 404.11 295.28C402.174 295.28 400.317 296.049 398.948 297.418C397.579 298.787 396.81 300.644 396.81 302.58ZM1243.7 -37.42C1243.7 -35.4839 1244.47 -33.6271 1245.84 -32.2581C1247.21 -30.8891 1249.06 -30.12 1251 -30.12C1252.94 -30.12 1254.79 -30.8891 1256.16 -32.2581C1257.53 -33.6271 1258.3 -35.4839 1258.3 -37.42C1258.3 -39.356 1257.53 -41.2128 1256.16 -42.5818C1254.79 -43.9509 1252.94 -44.72 1251 -44.72C1249.06 -44.72 1247.21 -43.9509 1245.84 -42.5818C1244.47 -41.2128 1243.7 -39.356 1243.7 -37.42ZM1306.92 -0.919968C1306.92 1.01611 1307.69 2.8729 1309.06 4.24191C1310.43 5.61093 1312.28 6.38004 1314.22 6.38004C1316.16 6.38004 1318.01 5.61093 1319.38 4.24191C1320.75 2.8729 1321.52 1.01611 1321.52 -0.919968C1321.52 -2.85605 1320.75 -4.71283 1319.38 -6.08185C1318.01 -7.45086 1316.16 -8.21997 1314.22 -8.21997C1312.28 -8.21997 1310.43 -7.45086 1309.06 -6.08185C1307.69 -4.71283 1306.92 -2.85605 1306.92 -0.919968ZM1306.92 72.08C1306.92 74.0161 1307.69 75.8729 1309.06 77.2419C1310.43 78.6109 1312.28 79.38 1314.22 79.38C1316.16 79.38 1318.01 78.6109 1319.38 77.2419C1320.75 75.8729 1321.52 74.0161 1321.52 72.08C1321.52 70.1439 1320.75 68.2872 1319.38 66.9182C1318.01 65.5491 1316.16 64.78 1314.22 64.78C1312.28 64.78 1310.43 65.5491 1309.06 66.9182C1307.69 68.2872 1306.92 70.1439 1306.92 72.08ZM1243.7 108.58C1243.7 110.516 1244.47 112.373 1245.84 113.742C1247.21 115.111 1249.06 115.88 1251 115.88C1252.94 115.88 1254.79 115.111 1256.16 113.742C1257.53 112.373 1258.3 110.516 1258.3 108.58C1258.3 106.644 1257.53 104.787 1256.16 103.418C1254.79 102.049 1252.94 101.28 1251 101.28C1249.06 101.28 1247.21 102.049 1245.84 103.418C1244.47 104.787 1243.7 106.644 1243.7 108.58ZM1180.47 72.08C1180.47 74.0161 1181.24 75.8729 1182.61 77.2419C1183.98 78.6109 1185.83 79.38 1187.77 79.38C1189.71 79.38 1191.56 78.6109 1192.93 77.2419C1194.3 75.8729 1195.07 74.0161 1195.07 72.08C1195.07 70.1439 1194.3 68.2872 1192.93 66.9182C1191.56 65.5491 1189.71 64.78 1187.77 64.78C1185.83 64.78 1183.98 65.5491 1182.61 66.9182C1181.24 68.2872 1180.47 70.1439 1180.47 72.08ZM1180.47 -0.919968C1180.47 1.01611 1181.24 2.8729 1182.61 4.24191C1183.98 5.61093 1185.83 6.38004 1187.77 6.38004C1189.71 6.38004 1191.56 5.61093 1192.93 4.24191C1194.3 2.8729 1195.07 1.01611 1195.07 -0.919968C1195.07 -2.85605 1194.3 -4.71283 1192.93 -6.08185C1191.56 -7.45086 1189.71 -8.21997 1187.77 -8.21997C1185.83 -8.21997 1183.98 -7.45086 1182.61 -6.08185C1181.24 -4.71283 1180.47 -2.85605 1180.47 -0.919968ZM839.36 485.08C839.36 487.016 840.129 488.873 841.498 490.242C842.867 491.611 844.724 492.38 846.66 492.38C848.596 492.38 850.453 491.611 851.822 490.242C853.191 488.873 853.96 487.016 853.96 485.08C853.96 483.144 853.191 481.287 851.822 479.918C850.453 478.549 848.596 477.78 846.66 477.78C844.724 477.78 842.867 478.549 841.498 479.918C840.129 481.287 839.36 483.144 839.36 485.08ZM902.58 521.58C902.58 523.516 903.349 525.373 904.718 526.742C906.087 528.111 907.944 528.88 909.88 528.88C911.816 528.88 913.673 528.111 915.042 526.742C916.411 525.373 917.18 523.516 917.18 521.58C917.18 519.644 916.411 517.787 915.042 516.418C913.673 515.049 911.816 514.28 909.88 514.28C907.944 514.28 906.087 515.049 904.718 516.418C903.349 517.787 902.58 519.644 902.58 521.58ZM902.58 594.58C902.58 596.516 903.349 598.373 904.718 599.742C906.087 601.111 907.944 601.88 909.88 601.88C911.816 601.88 913.673 601.111 915.042 599.742C916.411 598.373 917.18 596.516 917.18 594.58C917.18 592.644 916.411 590.787 915.042 589.418C913.673 588.049 911.816 587.28 909.88 587.28C907.944 587.28 906.087 588.049 904.718 589.418C903.349 590.787 902.58 592.644 902.58 594.58ZM839.36 631.08C839.36 633.016 840.129 634.873 841.498 636.242C842.867 637.611 844.724 638.38 846.66 638.38C848.596 638.38 850.453 637.611 851.822 636.242C853.191 634.873 853.96 633.016 853.96 631.08C853.96 629.144 853.191 627.287 851.822 625.918C850.453 624.549 848.596 623.78 846.66 623.78C844.724 623.78 842.867 624.549 841.498 625.918C840.129 627.287 839.36 629.144 839.36 631.08ZM776.14 594.58C776.14 596.516 776.909 598.373 778.278 599.742C779.647 601.111 781.504 601.88 783.44 601.88C785.376 601.88 787.233 601.111 788.602 599.742C789.971 598.373 790.74 596.516 790.74 594.58C790.74 592.644 789.971 590.787 788.602 589.418C787.233 588.049 785.376 587.28 783.44 587.28C781.504 587.28 779.647 588.049 778.278 589.418C776.909 590.787 776.14 592.644 776.14 594.58ZM776.14 521.58C776.14 523.516 776.909 525.373 778.278 526.742C779.647 528.111 781.504 528.88 783.44 528.88C785.376 528.88 787.233 528.111 788.602 526.742C789.971 525.373 790.74 523.516 790.74 521.58C790.74 519.644 789.971 517.787 788.602 516.418C787.233 515.049 785.376 514.28 783.44 514.28C781.504 514.28 779.647 515.049 778.278 516.418C776.909 517.787 776.14 519.644 776.14 521.58ZM965.8 485.08C965.8 487.016 966.569 488.873 967.938 490.242C969.307 491.611 971.164 492.38 973.1 492.38C975.036 492.38 976.893 491.611 978.262 490.242C979.631 488.873 980.4 487.016 980.4 485.08C980.4 483.144 979.631 481.287 978.262 479.918C976.893 478.549 975.036 477.78 973.1 477.78C971.164 477.78 969.307 478.549 967.938 479.918C966.569 481.287 965.8 483.144 965.8 485.08ZM1029.03 521.58C1029.03 522.539 1029.22 523.488 1029.59 524.374C1029.95 525.259 1030.49 526.064 1031.17 526.742C1031.85 527.42 1032.65 527.957 1033.54 528.324C1034.42 528.691 1035.37 528.88 1036.33 528.88C1037.29 528.88 1038.24 528.691 1039.12 528.324C1040.01 527.957 1040.81 527.42 1041.49 526.742C1042.17 526.064 1042.71 525.259 1043.07 524.374C1043.44 523.488 1043.63 522.539 1043.63 521.58C1043.63 520.621 1043.44 519.672 1043.07 518.786C1042.71 517.901 1042.17 517.096 1041.49 516.418C1040.81 515.74 1040.01 515.203 1039.12 514.836C1038.24 514.469 1037.29 514.28 1036.33 514.28C1035.37 514.28 1034.42 514.469 1033.54 514.836C1032.65 515.203 1031.85 515.74 1031.17 516.418C1030.49 517.096 1029.95 517.901 1029.59 518.786C1029.22 519.672 1029.03 520.621 1029.03 521.58ZM1029.03 594.58C1029.03 595.539 1029.22 596.488 1029.59 597.374C1029.95 598.259 1030.49 599.064 1031.17 599.742C1031.85 600.42 1032.65 600.957 1033.54 601.324C1034.42 601.691 1035.37 601.88 1036.33 601.88C1037.29 601.88 1038.24 601.691 1039.12 601.324C1040.01 600.957 1040.81 600.42 1041.49 599.742C1042.17 599.064 1042.71 598.259 1043.07 597.374C1043.44 596.488 1043.63 595.539 1043.63 594.58C1043.63 593.621 1043.44 592.672 1043.07 591.786C1042.71 590.901 1042.17 590.096 1041.49 589.418C1040.81 588.74 1040.01 588.203 1039.12 587.836C1038.24 587.469 1037.29 587.28 1036.33 587.28C1035.37 587.28 1034.42 587.469 1033.54 587.836C1032.65 588.203 1031.85 588.74 1031.17 589.418C1030.49 590.096 1029.95 590.901 1029.59 591.786C1029.22 592.672 1029.03 593.621 1029.03 594.58ZM965.8 631.08C965.8 633.016 966.569 634.873 967.938 636.242C969.307 637.611 971.164 638.38 973.1 638.38C975.036 638.38 976.893 637.611 978.262 636.242C979.631 634.873 980.4 633.016 980.4 631.08C980.4 629.144 979.631 627.287 978.262 625.918C976.893 624.549 975.036 623.78 973.1 623.78C971.164 623.78 969.307 624.549 967.938 625.918C966.569 627.287 965.8 629.144 965.8 631.08ZM1281.91 156.58C1281.91 158.516 1282.68 160.373 1284.05 161.742C1285.42 163.111 1287.27 163.88 1289.21 163.88C1291.15 163.88 1293 163.111 1294.37 161.742C1295.74 160.373 1296.51 158.516 1296.51 156.58C1296.51 154.644 1295.74 152.787 1294.37 151.418C1293 150.049 1291.15 149.28 1289.21 149.28C1287.27 149.28 1285.42 150.049 1284.05 151.418C1282.68 152.787 1281.91 154.644 1281.91 156.58ZM1345.13 193.08C1345.13 194.039 1345.32 194.988 1345.69 195.874C1346.05 196.759 1346.59 197.564 1347.27 198.242C1347.95 198.92 1348.75 199.457 1349.64 199.824C1350.52 200.191 1351.47 200.38 1352.43 200.38C1353.39 200.38 1354.34 200.191 1355.22 199.824C1356.11 199.457 1356.91 198.92 1357.59 198.242C1358.27 197.564 1358.81 196.759 1359.17 195.874C1359.54 194.988 1359.73 194.039 1359.73 193.08C1359.73 192.121 1359.54 191.172 1359.17 190.286C1358.81 189.401 1358.27 188.596 1357.59 187.918C1356.91 187.24 1356.11 186.703 1355.22 186.336C1354.34 185.969 1353.39 185.78 1352.43 185.78C1351.47 185.78 1350.52 185.969 1349.64 186.336C1348.75 186.703 1347.95 187.24 1347.27 187.918C1346.59 188.596 1346.05 189.401 1345.69 190.286C1345.32 191.172 1345.13 192.121 1345.13 193.08ZM1345.13 266.08C1345.13 267.039 1345.32 267.988 1345.69 268.874C1346.05 269.759 1346.59 270.564 1347.27 271.242C1347.95 271.92 1348.75 272.457 1349.64 272.824C1350.52 273.191 1351.47 273.38 1352.43 273.38C1353.39 273.38 1354.34 273.191 1355.22 272.824C1356.11 272.457 1356.91 271.92 1357.59 271.242C1358.27 270.564 1358.81 269.759 1359.17 268.874C1359.54 267.988 1359.73 267.039 1359.73 266.08C1359.73 265.121 1359.54 264.172 1359.17 263.286C1358.81 262.401 1358.27 261.596 1357.59 260.918C1356.91 260.24 1356.11 259.703 1355.22 259.336C1354.34 258.969 1353.39 258.78 1352.43 258.78C1351.47 258.78 1350.52 258.969 1349.64 259.336C1348.75 259.703 1347.95 260.24 1347.27 260.918C1346.59 261.596 1346.05 262.401 1345.69 263.286C1345.32 264.172 1345.13 265.121 1345.13 266.08ZM1281.91 302.58C1281.91 304.516 1282.68 306.373 1284.05 307.742C1285.42 309.111 1287.27 309.88 1289.21 309.88C1291.15 309.88 1293 309.111 1294.37 307.742C1295.74 306.373 1296.51 304.516 1296.51 302.58C1296.51 300.644 1295.74 298.787 1294.37 297.418C1293 296.049 1291.15 295.28 1289.21 295.28C1287.27 295.28 1285.42 296.049 1284.05 297.418C1282.68 298.787 1281.91 300.644 1281.91 302.58ZM1218.69 266.08C1218.69 268.016 1219.46 269.873 1220.83 271.242C1222.2 272.611 1224.05 273.38 1225.99 273.38C1227.93 273.38 1229.78 272.611 1231.15 271.242C1232.52 269.873 1233.29 268.016 1233.29 266.08C1233.29 264.144 1232.52 262.287 1231.15 260.918C1229.78 259.549 1227.93 258.78 1225.99 258.78C1224.05 258.78 1222.2 259.549 1220.83 260.918C1219.46 262.287 1218.69 264.144 1218.69 266.08ZM1218.69 193.08C1218.69 195.016 1219.46 196.873 1220.83 198.242C1222.2 199.611 1224.05 200.38 1225.99 200.38C1227.93 200.38 1229.78 199.611 1231.15 198.242C1232.52 196.873 1233.29 195.016 1233.29 193.08C1233.29 191.144 1232.52 189.287 1231.15 187.918C1229.78 186.549 1227.93 185.78 1225.99 185.78C1224.05 185.78 1222.2 186.549 1220.83 187.918C1219.46 189.287 1218.69 191.144 1218.69 193.08ZM1408.36 302.58C1408.36 304.516 1409.13 306.373 1410.5 307.742C1411.87 309.111 1413.72 309.88 1415.66 309.88C1417.6 309.88 1419.45 309.111 1420.82 307.742C1422.19 306.373 1422.96 304.516 1422.96 302.58C1422.96 300.644 1422.19 298.787 1420.82 297.418C1419.45 296.049 1417.6 295.28 1415.66 295.28C1413.72 295.28 1411.87 296.049 1410.5 297.418C1409.13 298.787 1408.36 300.644 1408.36 302.58ZM1408.36 375.58C1408.36 377.516 1409.13 379.373 1410.5 380.742C1411.87 382.111 1413.72 382.88 1415.66 382.88C1417.6 382.88 1419.45 382.111 1420.82 380.742C1422.19 379.373 1422.96 377.516 1422.96 375.58C1422.96 373.644 1422.19 371.787 1420.82 370.418C1419.45 369.049 1417.6 368.28 1415.66 368.28C1413.72 368.28 1411.87 369.049 1410.5 370.418C1409.13 371.787 1408.36 373.644 1408.36 375.58ZM1345.13 412.08C1345.13 413.039 1345.32 413.988 1345.69 414.874C1346.05 415.759 1346.59 416.564 1347.27 417.242C1347.95 417.92 1348.75 418.457 1349.64 418.824C1350.52 419.191 1351.47 419.38 1352.43 419.38C1353.39 419.38 1354.34 419.191 1355.22 418.824C1356.11 418.457 1356.91 417.92 1357.59 417.242C1358.27 416.564 1358.81 415.759 1359.17 414.874C1359.54 413.988 1359.73 413.039 1359.73 412.08C1359.73 411.121 1359.54 410.172 1359.17 409.286C1358.81 408.401 1358.27 407.596 1357.59 406.918C1356.91 406.24 1356.11 405.703 1355.22 405.336C1354.34 404.969 1353.39 404.78 1352.43 404.78C1351.47 404.78 1350.52 404.969 1349.64 405.336C1348.75 405.703 1347.95 406.24 1347.27 406.918C1346.59 407.596 1346.05 408.401 1345.69 409.286C1345.32 410.172 1345.13 411.121 1345.13 412.08ZM1281.91 375.58C1281.91 377.516 1282.68 379.373 1284.05 380.742C1285.42 382.111 1287.27 382.88 1289.21 382.88C1291.15 382.88 1293 382.111 1294.37 380.742C1295.74 379.373 1296.51 377.516 1296.51 375.58C1296.51 373.644 1295.74 371.787 1294.37 370.418C1293 369.049 1291.15 368.28 1289.21 368.28C1287.27 368.28 1285.42 369.049 1284.05 370.418C1282.68 371.787 1281.91 373.644 1281.91 375.58Z" fill="#3E82F7" fill-opacity="0.2"/>
<path d="M144.42 163.5L68.21 119.5L-8 163.5V251.5L68.21 295.5L144.42 251.5M144.42 163.5V251.5M144.42 163.5L220.64 119.5M144.42 251.5L220.64 295.5L296.85 251.5V163.5M220.64 119.5L296.85 163.5M220.64 119.5V31.5L296.85 -12.5L373.06 31.5V119.5L296.85 163.5M601.7 515.5V427.5L525.49 383.5L449.27 427.5V515.5M601.7 515.5L525.49 559.5M601.7 515.5L677.91 559.5M525.49 559.5L449.27 515.5M525.49 559.5V647.5M449.27 515.5L373.06 559.5V647.5L449.27 691.5L525.49 647.5M525.49 647.5L601.7 691.5L677.91 647.5M677.91 559.5V647.5M677.91 559.5L754.12 515.5L830.34 559.5M677.91 647.5L754.12 691.5L830.34 647.5M830.34 559.5V647.5M830.34 559.5L906.55 515.5L982.76 559.5M830.34 647.5L906.55 691.5L982.76 647.5M982.76 559.5V647.5M982.76 559.5L1058.97 515.5M982.76 647.5L1058.97 691.5L1135.19 647.5V559.5M1135.19 559.5L1211.4 515.5V427.5L1135.19 383.5L1058.97 427.5V515.5M1135.19 559.5L1058.97 515.5M1440.04 295.5L1363.82 251.5L1287.61 295.5V383.5L1363.82 427.5L1440.04 383.5V295.5ZM1440.04 295.5L1516.26 251.5V163.5L1440.04 119.5L1363.83 163.5V251.5L1440.04 295.5ZM220.64 383.5L296.85 427.5V515.5L220.64 559.5L144.42 515.5V427.5L220.64 383.5Z" stroke="#4AB097" stroke-width="2"/>
</g>
<path d="M641.629 250V222.266H646.785V250H641.629ZM628.152 250V222.266H633.309V250H628.152ZM628.973 238.574V233.809H646.062V238.574H628.973ZM658.309 250V222.266H663.465V250H658.309ZM652.137 250V245.352H669.676V250H652.137ZM652.137 226.895V222.266H669.676V226.895H652.137ZM680.027 258.516L681.59 245.039H687.41L685.066 258.516H680.027ZM728.621 250V222.266H733.777V250H728.621ZM722.449 250V245.352H739.988V250H722.449ZM722.449 226.895V222.266H739.988V226.895H722.449ZM753.699 237.793L750.145 234.434L752.488 231.992C752.944 231.523 753.27 231.074 753.465 230.645C753.66 230.215 753.758 229.779 753.758 229.336C753.758 228.646 753.562 228.145 753.172 227.832C752.781 227.507 752.176 227.344 751.355 227.344H750.086V222.266H751.941C754.272 222.266 755.991 222.806 757.098 223.887C758.204 224.967 758.758 226.654 758.758 228.945C758.758 230.247 758.497 231.452 757.977 232.559C757.456 233.652 756.674 234.74 755.633 235.82L753.699 237.793ZM777.43 240.293L778.016 234.668H778.25L780.281 222.266H783.152L783.465 227.188H782.234L779.891 240.293H777.43ZM768.543 250V222.266H773.348V250H768.543ZM776.297 240.293L773.953 227.188H772.723L773.035 222.266H775.906L777.938 234.668H778.094L778.641 240.293H776.297ZM782.84 250V222.266H787.645V250H782.84ZM420.375 324L433.188 279.625H443.312L456.125 324H447.219L438.531 290.469H437.969L429.281 324H420.375ZM426.844 315.594V307.969H449.344V315.594H426.844ZM478 324L470.188 289.312H466.781V279.625H473.5L481.312 314.312H483.406V324H478ZM461.094 324V279.625H469.031V324H461.094ZM482.469 324V279.625H490.406V324H482.469ZM509.125 324V279.625H517.375V324H509.125ZM496.469 287.219V279.625H530.031V287.219H496.469ZM550.75 324.625C539.479 324.625 533.844 317.125 533.844 302.125C533.844 286.708 539.479 279 550.75 279C562.021 279 567.656 286.708 567.656 302.125C567.656 317.125 562.021 324.625 550.75 324.625ZM550.75 316.75C556.25 316.75 559 311.875 559 302.125C559 291.958 556.25 286.875 550.75 286.875C545.25 286.875 542.5 291.958 542.5 302.125C542.5 311.875 545.25 316.75 550.75 316.75ZM590.5 324L582.688 289.312H579.281V279.625H586L593.812 314.312H595.906V324H590.5ZM573.594 324V279.625H581.531V324H573.594ZM594.969 324V279.625H602.906V324H594.969ZM622.094 310.75L607.25 279.625H616.469L625.469 300.25H626.031L635.031 279.625H644.25L629.406 310.75H622.094ZM621.625 324V302.125H629.875V324H621.625ZM699.938 324.625C694.896 324.625 691 323.25 688.25 320.5C685.521 317.729 684.156 313.854 684.156 308.875H692.75C692.75 311.375 693.385 313.323 694.656 314.719C695.948 316.094 697.76 316.781 700.094 316.781C702.448 316.781 704.26 316.094 705.531 314.719C706.823 313.344 707.469 311.396 707.469 308.875V279.625H715.719V308.875C715.719 313.875 714.323 317.75 711.531 320.5C708.76 323.25 704.896 324.625 699.938 324.625ZM697.312 287.219V279.625H711.875V287.219H697.312ZM720.375 324L733.188 279.625H743.312L756.125 324H747.219L738.531 290.469H737.969L729.281 324H720.375ZM726.844 315.594V307.969H749.344V315.594H726.844ZM768.656 307.75V300.156H776.625C778.542 300.156 780.031 299.594 781.094 298.469C782.156 297.323 782.688 295.729 782.688 293.688C782.688 291.625 782.156 290.031 781.094 288.906C780.031 287.781 778.542 287.219 776.625 287.219H768.781L768.031 279.625H776.625C781.396 279.625 785.083 280.792 787.688 283.125C790.292 285.458 791.594 288.771 791.594 293.062C791.594 297.708 790.292 301.323 787.688 303.906C785.083 306.469 781.396 307.75 776.625 307.75H768.656ZM760.844 324V279.625H769.094V324H760.844ZM783.375 324L775 303.125H783.688L793.219 324H783.375ZM795.375 324L808.188 279.625H818.312L831.125 324H822.219L813.531 290.469H812.969L804.281 324H795.375ZM801.844 315.594V307.969H824.344V315.594H801.844ZM849.688 308.469L850.625 299.469H851L854.25 279.625H858.844L859.344 287.5H857.375L853.625 308.469H849.688ZM835.469 324V279.625H843.156V324H835.469ZM847.875 308.469L844.125 287.5H842.156L842.656 279.625H847.25L850.5 299.469H850.75L851.625 308.469H847.875ZM858.344 324V279.625H866.031V324H858.344ZM884.094 324V279.625H892.344V324H884.094ZM874.219 324V316.562H902.281V324H874.219ZM874.219 287.031V279.625H902.281V287.031H874.219ZM911.469 324V279.625H919.719V324H911.469ZM911.469 324V316.406H941.906V324H911.469ZM948.969 324V279.625H957.219V324H948.969ZM948.969 324V316.406H979.406V324H948.969ZM1000.75 324.625C989.479 324.625 983.844 317.125 983.844 302.125C983.844 286.708 989.479 279 1000.75 279C1012.02 279 1017.66 286.708 1017.66 302.125C1017.66 317.125 1012.02 324.625 1000.75 324.625ZM1000.75 316.75C1006.25 316.75 1009 311.875 1009 302.125C1009 291.958 1006.25 286.875 1000.75 286.875C995.25 286.875 992.5 291.958 992.5 302.125C992.5 311.875 995.25 316.75 1000.75 316.75Z" fill="white"/>
</g>
<defs>
<clipPath id="clip0_692_738">
<rect width="1440" height="560" fill="white"/>
</clipPath>
</defs>
</svg>
